# xmcd CD database file
#
# Track frame offsets:
#	182
#	32720
#	67582
#	86295
#	104282
#	119582
#	141920
#	157932
#	177507
#	202345
#	218920
#
# Disc length: 3294 seconds
#
# Revision: 0
# Processed by: cddbd v1.5.1PL0 Copyright (c) Steve Scherf et al.
# Submitted via: CDex 1.51
#
DISCID=990cdc0b
DTITLE=Max Roach - Dizionario Enciclopedico del Jazz - Volume 56
DYEAR=1992
DGENRE=Jazz
TTITLE0=Jor-Du
TTITLE1=Parisian Throughfare
TTITLE2=Minor Mode Blues
TTITLE3=The Scene Is Clean
TTITLE4=Love For Sale
TTITLE5=Blues Mambo
TTITLE6=Drums Also Waltzes
TTITLE7=Drums Unlimited
TTITLE8=Members Don't Git Weary
TTITLE9=Effi
TTITLE10=Abstruction
EXTD=YEAR: 1992
EXTT0=
EXTT1=
EXTT2=
EXTT3=
EXTT4=
EXTT5=
EXTT6=
EXTT7=
EXTT8=
EXTT9=
EXTT10=
PLAYORDER=
